<svg width="60" height="60" viewBox="0 0 60 60" fill="none" xmlns="http://www.w3.org/2000/svg">
<path d="M48.2016 14.4469L14.4516 48.1969C14.0998 48.5487 13.6226 48.7464 13.1251 48.7464C12.6275 48.7464 12.1503 48.5487 11.7985 48.1969C11.4467 47.8451 11.249 47.3679 11.249 46.8703C11.249 46.3728 11.4467 45.8956 11.7985 45.5438L45.5485 11.7938C45.9 11.4419 46.3769 11.2442 46.8742 11.2439C47.3716 11.2437 47.8486 11.4411 48.2005 11.7926C48.5523 12.1441 48.7501 12.621 48.7503 13.1183C48.7505 13.6157 48.5531 14.0927 48.2016 14.4445V14.4469ZM11.8454 23.775C10.2631 22.1924 9.37429 20.0461 9.37451 17.8082C9.37473 15.5703 10.2639 13.4241 11.8465 11.8418C13.4291 10.2595 15.5755 9.37072 17.8134 9.37094C20.0513 9.37116 22.1975 10.2604 23.7797 11.843C25.362 13.4256 26.2508 15.5719 26.2506 17.8098C26.2504 20.0477 25.3612 22.1939 23.7786 23.7762C22.196 25.3585 20.0496 26.2473 17.8117 26.247C15.5738 26.2468 13.4277 25.3576 11.8454 23.775ZM13.1251 17.8125C13.1257 18.5832 13.3163 19.3419 13.6801 20.0214C14.0439 20.7009 14.5697 21.2802 15.2108 21.708C15.8519 22.1358 16.5886 22.3989 17.3557 22.474C18.1227 22.5491 18.8965 22.4339 19.6084 22.1387C20.3203 21.8434 20.9485 21.3771 21.4372 20.7811C21.9259 20.1851 22.2601 19.4779 22.4103 18.7219C22.5604 17.9659 22.5218 17.1846 22.2979 16.4471C22.074 15.7096 21.6717 15.0387 21.1266 14.4938C20.4708 13.8381 19.6352 13.3917 18.7256 13.2111C17.816 13.0305 16.8733 13.1237 16.0167 13.479C15.1601 13.8343 14.4281 14.4356 13.9134 15.207C13.3987 15.9784 13.1243 16.8852 13.1251 17.8125ZM50.6251 42.1875C50.6246 44.1395 49.9473 46.031 48.7086 47.5397C47.47 49.0484 45.7465 50.0809 43.8319 50.4613C41.9173 50.8417 39.93 50.5465 38.2086 49.626C36.4873 48.7054 35.1383 47.2165 34.3917 45.4129C33.645 43.6093 33.5468 41.6026 34.1138 39.7348C34.6808 37.8669 35.8779 36.2534 37.5012 35.1692C39.1245 34.085 41.0734 33.5972 43.016 33.7888C44.9586 33.9805 46.7747 34.8398 48.1548 36.2203C48.9407 37.0021 49.5637 37.9321 49.9877 38.9564C50.4118 39.9807 50.6284 41.0789 50.6251 42.1875ZM46.8751 42.1875C46.8753 41.103 46.4995 40.052 45.8117 39.2135C45.1238 38.3751 44.1666 37.801 43.103 37.5893C42.0393 37.3775 40.9352 37.541 39.9787 38.0521C39.0221 38.5631 38.2724 39.39 37.8572 40.3919C37.442 41.3937 37.387 42.5086 37.7017 43.5464C38.0163 44.5843 38.6811 45.4809 39.5827 46.0836C40.4843 46.6862 41.567 46.9576 42.6463 46.8515C43.7256 46.7454 44.7347 46.2683 45.5016 45.5016C45.9383 45.0674 46.2845 44.5509 46.5203 43.9821C46.756 43.4132 46.8766 42.8033 46.8751 42.1875Z" fill="#0066ff"/>
</svg>
