<svg width="60" height="60" viewBox="0 0 60 60" fill="none" xmlns="http://www.w3.org/2000/svg">
<path d="M52.5 35.625V48.75C52.5 49.7446 52.1049 50.6984 51.4016 51.4017C50.6984 52.1049 49.7446 52.5 48.75 52.5H11.25C10.2554 52.5 9.30161 52.1049 8.59835 51.4017C7.89509 50.6984 7.5 49.7446 7.5 48.75V35.625C7.5 35.1277 7.69754 34.6508 8.04918 34.2992C8.40081 33.9476 8.87772 33.75 9.375 33.75C9.87228 33.75 10.3492 33.9476 10.7008 34.2992C11.0525 34.6508 11.25 35.1277 11.25 35.625V48.75H48.75V35.625C48.75 35.1277 48.9475 34.6508 49.2992 34.2992C49.6508 33.9476 50.1277 33.75 50.625 33.75C51.1223 33.75 51.5992 33.9476 51.9508 34.2992C52.3025 34.6508 52.5 35.1277 52.5 35.625ZM21.9516 20.0766L28.125 13.9008V35.625C28.125 36.1223 28.3225 36.5992 28.6742 36.9508C29.0258 37.3025 29.5027 37.5 30 37.5C30.4973 37.5 30.9742 37.3025 31.3258 36.9508C31.6775 36.5992 31.875 36.1223 31.875 35.625V13.9008L38.0484 20.0766C38.4003 20.4284 38.8774 20.6261 39.375 20.6261C39.8726 20.6261 40.3497 20.4284 40.7016 20.0766C41.0534 19.7247 41.251 19.2476 41.251 18.75C41.251 18.2525 41.0534 17.7753 40.7016 17.4234L31.3266 8.04845C31.1524 7.87412 30.9456 7.73582 30.718 7.64146C30.4904 7.5471 30.2464 7.49854 30 7.49854C29.7536 7.49854 29.5096 7.5471 29.282 7.64146C29.0544 7.73582 28.8476 7.87412 28.6734 8.04845L19.2984 17.4234C18.9466 17.7753 18.749 18.2525 18.749 18.75C18.749 19.2476 18.9466 19.7247 19.2984 20.0766C19.6503 20.4284 20.1274 20.6261 20.625 20.6261C21.1226 20.6261 21.5997 20.4284 21.9516 20.0766Z" fill="#0066ff"/>
</svg>
