<svg width="161" height="161" viewBox="0 0 161 161" fill="none" xmlns="http://www.w3.org/2000/svg">
<path d="M135.946 116.051C136.746 114.579 137.93 113.459 139.498 112.691C141.066 111.923 142.97 111.539 145.21 111.539V116.003C144.954 115.971 144.602 115.955 144.154 115.955C141.658 115.955 139.69 116.707 138.25 118.211C136.842 119.683 136.138 121.795 136.138 124.547V137.219H131.53V111.779H135.946V116.051Z" fill="white"/>
<path d="M96.8914 111.779V137.219H92.4754V133.187C91.4514 134.595 90.1554 135.667 88.5874 136.403C87.0194 137.139 85.2914 137.507 83.4034 137.507C80.9394 137.507 78.7314 136.963 76.7794 135.875C74.8274 134.787 73.2914 133.267 72.1714 131.315C71.0834 129.331 70.5394 127.059 70.5394 124.499C70.5394 121.939 71.0834 119.683 72.1714 117.731C73.2914 115.779 74.8274 114.259 76.7794 113.171C78.7314 112.083 80.9394 111.539 83.4034 111.539C85.2274 111.539 86.9074 111.891 88.4434 112.595C89.9794 113.267 91.2594 114.275 92.2834 115.619V111.779H96.8914ZM83.7874 133.475C85.3874 133.475 86.8434 133.107 88.1554 132.371C89.4674 131.603 90.4914 130.547 91.2274 129.203C91.9634 127.827 92.3314 126.259 92.3314 124.499C92.3314 122.739 91.9634 121.187 91.2274 119.843C90.4914 118.467 89.4674 117.411 88.1554 116.675C86.8434 115.939 85.3874 115.571 83.7874 115.571C82.1554 115.571 80.6834 115.939 79.3714 116.675C78.0914 117.411 77.0674 118.467 76.2994 119.843C75.5634 121.187 75.1954 122.739 75.1954 124.499C75.1954 126.259 75.5634 127.827 76.2994 129.203C77.0674 130.547 78.0914 131.603 79.3714 132.371C80.6834 133.107 82.1554 133.475 83.7874 133.475Z" fill="white"/>
<path d="M31.0126 137.507C28.4206 137.507 26.1006 136.947 24.0526 135.827C22.0366 134.707 20.4526 133.171 19.3006 131.219C18.1486 129.235 17.5726 126.995 17.5726 124.499C17.5726 122.003 18.1486 119.779 19.3006 117.827C20.4526 115.843 22.0366 114.307 24.0526 113.219C26.1006 112.099 28.4206 111.539 31.0126 111.539C33.3166 111.539 35.3646 112.003 37.1566 112.931C38.9806 113.859 40.3886 115.203 41.3806 116.963L37.8766 119.219C37.0766 118.003 36.0846 117.091 34.9006 116.483C33.7166 115.875 32.4046 115.571 30.9646 115.571C29.3006 115.571 27.7966 115.939 26.4526 116.675C25.1406 117.411 24.1006 118.467 23.3326 119.843C22.5966 121.187 22.2286 122.739 22.2286 124.499C22.2286 126.291 22.5966 127.875 23.3326 129.251C24.1006 130.595 25.1406 131.635 26.4526 132.371C27.7966 133.107 29.3006 133.475 30.9646 133.475C32.4046 133.475 33.7166 133.171 34.9006 132.563C36.0846 131.955 37.0766 131.043 37.8766 129.827L41.3806 132.035C40.3886 133.795 38.9806 135.155 37.1566 136.115C35.3646 137.043 33.3166 137.507 31.0126 137.507Z" fill="white"/>
<path d="M138.391 92.2188V55.375C138.391 51.9062 138.5 48.0938 138.719 43.9375L138.859 40.8438H138.297C137.297 46.125 136.531 49.7812 136 51.8125L126.109 92.2188H107.078L96.7188 52.2812C96.4375 51.2812 95.7031 47.4688 94.5156 40.8438H93.9531C94.3906 51.3438 94.6094 57.9062 94.6094 60.5312V92.2188H76.8438V25H107.172L116.406 61.5156C116.625 62.2656 116.906 63.7969 117.25 66.1094C117.625 68.3906 117.859 70.1562 117.953 71.4062H118.234C118.578 68.5625 119.125 65.2031 119.875 61.3281L128.5 25H158.359V92.2188H138.391Z" fill="white"/>
<path d="M67.375 57.7656C67.375 64.5781 65.9375 70.6094 63.0625 75.8594C60.2188 81.0781 56.1406 85.1094 50.8281 87.9531C45.5156 90.7969 39.3906 92.2188 32.4531 92.2188H4V25H31.8438C55.5312 25 67.375 35.9219 67.375 57.7656ZM45.8594 57.9531C45.8594 54.6719 45.1875 51.7188 43.8438 49.0938C42.5312 46.4688 40.6406 44.4375 38.1719 43C35.7031 41.5625 32.7969 40.8438 29.4531 40.8438H24.25V76.375H29.9219C34.7656 76.375 38.625 74.7188 41.5 71.4062C44.4062 68.0625 45.8594 63.5781 45.8594 57.9531Z" fill="white"/>
</svg>
